<svg width="232" height="31" viewBox="0 0 232 31" fill="none" xmlns="http://www.w3.org/2000/svg">
<path d="M9.52 30.64C6.50667 30.64 4.29333 29.88 2.88 28.36C1.46667 26.84 0.76 24.32 0.76 20.8C0.76 18 1.22667 14.9867 2.16 11.76C3.12 8.53333 4.64 5.77333 6.72 3.48C8.82667 1.16 11.4933 -2.38419e-06 14.72 -2.38419e-06C16.72 -2.38419e-06 18.3333 0.439998 19.56 1.32C20.7867 2.2 21.4 3.54667 21.4 5.36C21.4 6.50667 21.1733 7.41333 20.72 8.08C20.2667 8.72 19.56 9.04 18.6 9.04C17.64 9.04 16.88 8.69333 16.32 8C16.8 7.76 17.2267 7.28 17.6 6.56C17.9733 5.84 18.16 5.09333 18.16 4.32C18.16 3.6 17.96 3.01333 17.56 2.56C17.1867 2.10667 16.5733 1.88 15.72 1.88C14.3067 1.88 12.96 2.85333 11.68 4.8C10.4 6.72 9.36 9.14667 8.56 12.08C7.78667 15.0133 7.4 17.84 7.4 20.56C7.4 22.5867 7.74667 24.1333 8.44 25.2C9.13333 26.2667 10.3867 26.8 12.2 26.8C13.7733 26.8 15.2267 26.4533 16.56 25.76C17.8933 25.0667 19.04 24.08 20 22.8L20.92 23.2C20.2533 24.88 19.2667 26.28 17.96 27.4C16.6533 28.52 15.2533 29.3467 13.76 29.88C12.2667 30.3867 10.8533 30.64 9.52 30.64ZM23.8428 30.24C22.5628 30.24 21.5228 29.84 20.7228 29.04C19.9495 28.24 19.5628 27.04 19.5628 25.44C19.5628 24.7733 19.6695 23.9067 19.8828 22.84L22.6028 10H28.3628L25.4828 23.6C25.4028 24 25.3628 24.3733 25.3628 24.72C25.3628 25.8133 25.7628 26.36 26.5628 26.36C27.3095 26.36 27.9495 26.0533 28.4828 25.44C29.0161 24.8 29.4428 23.9333 29.7628 22.84L32.4828 10H38.2428L35.3628 23.6C35.2561 24 35.2028 24.4267 35.2028 24.88C35.2028 25.4133 35.3228 25.8 35.5628 26.04C35.8295 26.2533 36.2561 26.36 36.8428 26.36C37.5895 26.36 38.2295 26.04 38.7628 25.4C39.3228 24.76 39.7628 23.9067 40.0828 22.84H41.7628C40.7761 25.72 39.5495 27.68 38.0828 28.72C36.6428 29.7333 35.1895 30.24 33.7228 30.24C32.5761 30.24 31.6561 29.92 30.9628 29.28C30.2961 28.64 29.8961 27.6933 29.7628 26.44C28.8561 27.9067 27.8961 28.9067 26.8828 29.44C25.8961 29.9733 24.8828 30.24 23.8428 30.24ZM46.7581 7.84C45.8781 7.84 45.1315 7.53333 44.5181 6.92C43.9048 6.30667 43.5981 5.56 43.5981 4.68C43.5981 3.8 43.9048 3.05333 44.5181 2.44C45.1315 1.8 45.8781 1.48 46.7581 1.48C47.6381 1.48 48.3848 1.8 48.9981 2.44C49.6381 3.05333 49.9581 3.8 49.9581 4.68C49.9581 5.56 49.6381 6.30667 48.9981 6.92C48.3848 7.53333 47.6381 7.84 46.7581 7.84ZM44.0381 30.24C42.7581 30.24 41.7181 29.84 40.9181 29.04C40.1448 28.24 39.7581 27.04 39.7581 25.44C39.7581 24.7733 39.8648 23.9067 40.0781 22.84L42.7981 10H48.5581L45.6781 23.6C45.5715 24 45.5181 24.4267 45.5181 24.88C45.5181 25.4133 45.6381 25.8 45.8781 26.04C46.1448 26.2533 46.5715 26.36 47.1581 26.36C47.9315 26.36 48.6515 26.04 49.3181 25.4C49.9848 24.7333 50.4648 23.88 50.7581 22.84H52.4381C51.4515 25.72 50.1848 27.68 48.6381 28.72C47.0915 29.7333 45.5581 30.24 44.0381 30.24ZM55.3022 30.24C54.0222 30.24 52.9422 30 52.0622 29.52C51.1822 29.0133 50.5289 28.3733 50.1022 27.6C49.6755 26.8 49.4622 25.9733 49.4622 25.12C49.4622 24.24 49.6755 23.48 50.1022 22.84C50.5022 22.1733 50.9955 21.6933 51.5822 21.4C52.6222 19.5333 53.5289 17.6533 54.3022 15.76C55.0755 13.84 55.8089 11.7733 56.5022 9.56L62.4222 8.76C62.5555 12.1733 62.7822 15.8667 63.1022 19.84C63.2355 21.44 63.3022 22.6 63.3022 23.32C63.3022 23.9333 63.2489 24.44 63.1422 24.84C64.3955 24.12 65.3555 23.4533 66.0222 22.84H67.7022C65.9955 24.8133 63.9555 26.48 61.5822 27.84C60.8089 28.6667 59.8489 29.28 58.7022 29.68C57.5822 30.0533 56.4489 30.24 55.3022 30.24ZM54.0222 27.08C55.0089 27.08 55.8355 26.7867 56.5022 26.2C57.1689 25.6133 57.5022 24.6667 57.5022 23.36C57.5022 22.56 57.4222 21.44 57.2622 20C56.9955 16.96 56.8222 14.92 56.7422 13.88C56.1022 15.9867 55.0222 18.5067 53.5022 21.44C54.1155 21.76 54.4222 22.2267 54.4222 22.84C54.4222 23.3467 54.2489 23.8 53.9022 24.2C53.5822 24.6 53.1689 24.8 52.6622 24.8C52.1022 24.8 51.7422 24.6267 51.5822 24.28C51.5822 25.24 51.7689 25.9467 52.1422 26.4C52.5422 26.8533 53.1689 27.08 54.0222 27.08ZM72.6956 7.84C71.8156 7.84 71.069 7.53333 70.4556 6.92C69.8423 6.30667 69.5356 5.56 69.5356 4.68C69.5356 3.8 69.8423 3.05333 70.4556 2.44C71.069 1.8 71.8156 1.48 72.6956 1.48C73.5756 1.48 74.3223 1.8 74.9356 2.44C75.5756 3.05333 75.8956 3.8 75.8956 4.68C75.8956 5.56 75.5756 6.30667 74.9356 6.92C74.3223 7.53333 73.5756 7.84 72.6956 7.84ZM69.9756 30.24C68.6956 30.24 67.6556 29.84 66.8556 29.04C66.0823 28.24 65.6956 27.04 65.6956 25.44C65.6956 24.7733 65.8023 23.9067 66.0156 22.84L68.7356 10H74.4956L71.6156 23.6C71.509 24 71.4556 24.4267 71.4556 24.88C71.4556 25.4133 71.5756 25.8 71.8156 26.04C72.0823 26.2533 72.509 26.36 73.0956 26.36C73.869 26.36 74.589 26.04 75.2556 25.4C75.9223 24.7333 76.4023 23.88 76.6956 22.84H78.3756C77.389 25.72 76.1223 27.68 74.5756 28.72C73.029 29.7333 71.4956 30.24 69.9756 30.24ZM91.1197 30.24C89.493 30.24 88.293 29.8133 87.5197 28.96C86.773 28.08 86.3997 27 86.3997 25.72C86.3997 25.16 86.4664 24.5333 86.5997 23.84C86.733 23.12 86.8664 22.4267 86.9997 21.76C87.1597 21.0933 87.2664 20.6667 87.3197 20.48C87.533 19.5467 87.733 18.6267 87.9197 17.72C88.1064 16.8133 88.1997 16.08 88.1997 15.52C88.1997 14.16 87.7197 13.48 86.7597 13.48C86.0664 13.48 85.453 13.8267 84.9197 14.52C84.3864 15.1867 83.9597 16.0667 83.6397 17.16L80.9197 30H75.1597L79.3997 10H85.1597L84.7197 12.08C86.053 10.5867 87.613 9.84 89.3997 9.84C90.7597 9.84 91.8397 10.2133 92.6397 10.96C93.4397 11.7067 93.8397 12.84 93.8397 14.36C93.8397 15.1333 93.7464 16 93.5597 16.96C93.373 17.8933 93.1064 19.04 92.7597 20.4C92.5464 21.2267 92.3464 22.04 92.1597 22.84C91.9997 23.6133 91.9197 24.2267 91.9197 24.68C91.9197 25.2133 92.0397 25.6267 92.2797 25.92C92.5197 26.2133 92.933 26.36 93.5197 26.36C94.3197 26.36 94.9597 26.08 95.4397 25.52C95.9197 24.9333 96.3997 24.04 96.8797 22.84H98.5597C97.573 25.7733 96.4264 27.7467 95.1197 28.76C93.8397 29.7467 92.5064 30.24 91.1197 30.24ZM102.515 30.24C100.568 30.24 99.0483 29.7333 97.955 28.72C96.8617 27.68 96.315 26.0667 96.315 23.88C96.315 22.04 96.675 20.0133 97.395 17.8C98.115 15.5867 99.2883 13.68 100.915 12.08C102.542 10.4533 104.608 9.64 107.115 9.64C110.048 9.64 111.515 10.92 111.515 13.48C111.515 14.9733 111.088 16.3467 110.235 17.6C109.382 18.8533 108.248 19.8667 106.835 20.64C105.422 21.3867 103.915 21.8133 102.315 21.92C102.262 22.5067 102.235 22.9067 102.235 23.12C102.235 25.3333 103.062 26.44 104.715 26.44C105.462 26.44 106.262 26.24 107.115 25.84C107.968 25.44 108.742 24.9333 109.435 24.32C108.715 28.2667 106.408 30.24 102.515 30.24ZM102.595 20C103.608 19.9733 104.555 19.64 105.435 19C106.342 18.36 107.062 17.5467 107.595 16.56C108.155 15.5467 108.435 14.4933 108.435 13.4C108.435 12.3067 108.102 11.76 107.435 11.76C106.502 11.76 105.568 12.6133 104.635 14.32C103.728 16 103.048 17.8933 102.595 20ZM121.043 30.64C118.03 30.64 115.817 29.88 114.403 28.36C112.99 26.84 112.283 24.32 112.283 20.8C112.283 18 112.75 14.9867 113.683 11.76C114.643 8.53333 116.163 5.77333 118.243 3.48C120.35 1.16 123.017 -2.38419e-06 126.243 -2.38419e-06C128.243 -2.38419e-06 129.857 0.439998 131.083 1.32C132.31 2.2 132.923 3.54667 132.923 5.36C132.923 6.50667 132.697 7.41333 132.243 8.08C131.79 8.72 131.083 9.04 130.123 9.04C129.163 9.04 128.403 8.69333 127.843 8C128.323 7.76 128.75 7.28 129.123 6.56C129.497 5.84 129.683 5.09333 129.683 4.32C129.683 3.6 129.483 3.01333 129.083 2.56C128.71 2.10667 128.097 1.88 127.243 1.88C125.83 1.88 124.483 2.85333 123.203 4.8C121.923 6.72 120.883 9.14667 120.083 12.08C119.31 15.0133 118.923 17.84 118.923 20.56C118.923 22.5867 119.27 24.1333 119.963 25.2C120.657 26.2667 121.91 26.8 123.723 26.8C125.297 26.8 126.75 26.4533 128.083 25.76C129.417 25.0667 130.563 24.08 131.523 22.8L132.443 23.2C131.777 24.88 130.79 26.28 129.483 27.4C128.177 28.52 126.777 29.3467 125.283 29.88C123.79 30.3867 122.377 30.64 121.043 30.64ZM137.246 30.16C135.273 30.16 133.713 29.6533 132.566 28.64C131.42 27.6267 130.846 26.0267 130.846 23.84C130.846 22.0267 131.22 20.0133 131.966 17.8C132.713 15.5867 133.913 13.68 135.566 12.08C137.22 10.4533 139.3 9.64 141.806 9.64C145.22 9.64 146.926 11.7733 146.926 16.04V16.08C147.006 16.1067 147.153 16.12 147.366 16.12C148.246 16.12 149.26 15.8933 150.406 15.44C151.553 14.96 152.593 14.3867 153.526 13.72L153.886 14.8C153.113 15.6267 152.1 16.3333 150.846 16.92C149.62 17.48 148.273 17.88 146.806 18.12C146.593 20.5467 146.046 22.6667 145.166 24.48C144.286 26.2933 143.153 27.6933 141.766 28.68C140.38 29.6667 138.873 30.16 137.246 30.16ZM138.846 26.56C139.486 26.56 140.126 26.2 140.766 25.48C141.406 24.7333 141.966 23.7333 142.446 22.48C142.926 21.2 143.273 19.7867 143.486 18.24C142.766 18.08 142.406 17.52 142.406 16.56C142.406 15.4667 142.82 14.7467 143.646 14.4C143.593 13.52 143.46 12.92 143.246 12.6C143.033 12.2533 142.66 12.08 142.126 12.08C141.246 12.08 140.393 12.72 139.566 14C138.74 15.28 138.073 16.8133 137.566 18.6C137.06 20.3867 136.806 21.96 136.806 23.32C136.806 24.6 136.953 25.4667 137.246 25.92C137.54 26.3467 138.073 26.56 138.846 26.56ZM163.424 30.24C161.798 30.24 160.598 29.8133 159.824 28.96C159.078 28.08 158.704 27 158.704 25.72C158.704 25.16 158.771 24.5333 158.904 23.84C159.038 23.12 159.171 22.4267 159.304 21.76C159.464 21.0933 159.571 20.6667 159.624 20.48C159.838 19.5467 160.038 18.6267 160.224 17.72C160.411 16.8133 160.504 16.08 160.504 15.52C160.504 14.16 160.024 13.48 159.064 13.48C158.371 13.48 157.758 13.8267 157.224 14.52C156.691 15.1867 156.264 16.0667 155.944 17.16L153.224 30H147.464L151.704 10H157.464L157.024 12.08C158.358 10.5867 159.918 9.84 161.704 9.84C163.064 9.84 164.144 10.2133 164.944 10.96C165.744 11.7067 166.144 12.84 166.144 14.36C166.144 15.1333 166.051 16 165.864 16.96C165.678 17.8933 165.411 19.04 165.064 20.4C164.851 21.2267 164.651 22.04 164.464 22.84C164.304 23.6133 164.224 24.2267 164.224 24.68C164.224 25.2133 164.344 25.6267 164.584 25.92C164.824 26.2133 165.238 26.36 165.824 26.36C166.624 26.36 167.264 26.08 167.744 25.52C168.224 24.9333 168.704 24.04 169.184 22.84H170.864C169.878 25.7733 168.731 27.7467 167.424 28.76C166.144 29.7467 164.811 30.24 163.424 30.24ZM183.62 30.24C181.993 30.24 180.793 29.8133 180.02 28.96C179.273 28.08 178.9 27 178.9 25.72C178.9 25.16 178.966 24.5333 179.1 23.84C179.233 23.12 179.366 22.4267 179.5 21.76C179.66 21.0933 179.766 20.6667 179.82 20.48C180.033 19.5467 180.233 18.6267 180.42 17.72C180.606 16.8133 180.7 16.08 180.7 15.52C180.7 14.16 180.22 13.48 179.26 13.48C178.566 13.48 177.953 13.8267 177.42 14.52C176.886 15.1867 176.46 16.0667 176.14 17.16L173.42 30H167.66L171.9 10H177.66L177.22 12.08C178.553 10.5867 180.113 9.84 181.9 9.84C183.26 9.84 184.34 10.2133 185.14 10.96C185.94 11.7067 186.34 12.84 186.34 14.36C186.34 15.1333 186.246 16 186.06 16.96C185.873 17.8933 185.606 19.04 185.26 20.4C185.046 21.2267 184.846 22.04 184.66 22.84C184.5 23.6133 184.42 24.2267 184.42 24.68C184.42 25.2133 184.54 25.6267 184.78 25.92C185.02 26.2133 185.433 26.36 186.02 26.36C186.82 26.36 187.46 26.08 187.94 25.52C188.42 24.9333 188.9 24.04 189.38 22.84H191.06C190.073 25.7733 188.926 27.7467 187.62 28.76C186.34 29.7467 185.006 30.24 183.62 30.24ZM195.095 30.24C193.122 30.24 191.588 29.7333 190.495 28.72C189.402 27.68 188.855 26.0667 188.855 23.88C188.855 22.04 189.215 20.0133 189.935 17.8C190.655 15.5867 191.828 13.68 193.455 12.08C195.082 10.4533 197.148 9.64 199.655 9.64C202.588 9.64 204.055 10.92 204.055 13.48C204.055 14.9733 203.628 16.3467 202.775 17.6C201.922 18.8533 200.788 19.8667 199.375 20.64C197.962 21.3867 196.455 21.8133 194.855 21.92C194.802 22.72 194.775 23.2533 194.775 23.52C194.775 24.8267 195.002 25.72 195.455 26.2C195.908 26.6533 196.642 26.88 197.655 26.88C199.095 26.88 200.322 26.5467 201.335 25.88C202.375 25.2133 203.508 24.2 204.735 22.84H206.095C203.135 27.7733 199.468 30.24 195.095 30.24ZM195.175 20C196.162 19.9467 197.095 19.6 197.975 18.96C198.882 18.32 199.602 17.5067 200.135 16.52C200.695 15.5333 200.975 14.4933 200.975 13.4C200.975 12.3067 200.642 11.76 199.975 11.76C199.015 11.76 198.068 12.6 197.135 14.28C196.228 15.96 195.575 17.8667 195.175 20ZM210.447 30.24C208.473 30.24 206.94 29.7333 205.847 28.72C204.753 27.68 204.207 26.0667 204.207 23.88C204.207 22.04 204.567 20.0133 205.287 17.8C206.033 15.5867 207.207 13.68 208.807 12.08C210.433 10.4533 212.487 9.64 214.967 9.64C216.567 9.64 217.7 9.98667 218.367 10.68C219.06 11.3733 219.407 12.2533 219.407 13.32C219.407 14.2533 219.207 14.9733 218.807 15.48C218.407 15.9867 217.9 16.24 217.287 16.24C216.833 16.24 216.367 16.08 215.887 15.76C216.207 14.88 216.367 14.0933 216.367 13.4C216.367 12.8933 216.273 12.4933 216.087 12.2C215.9 11.9067 215.62 11.76 215.247 11.76C214.447 11.76 213.647 12.4133 212.847 13.72C212.047 15.0267 211.393 16.6133 210.887 18.48C210.38 20.3467 210.127 22.0267 210.127 23.52C210.127 24.8267 210.353 25.72 210.807 26.2C211.26 26.6533 211.993 26.88 213.007 26.88C214.447 26.88 215.673 26.5467 216.687 25.88C217.727 25.2133 218.86 24.2 220.087 22.84H221.447C218.487 27.7733 214.82 30.24 210.447 30.24ZM223.838 30.24C222.478 30.24 221.465 29.8267 220.798 29C220.158 28.1733 219.838 27.08 219.838 25.72C219.838 25.0267 219.918 24.32 220.078 23.6L222.638 11.6H221.318L221.638 10H222.958L224.158 4.48L230.078 3.68C229.838 4.69333 229.705 5.29333 229.678 5.48C229.491 6.22667 229.171 7.73333 228.718 10H231.118L230.798 11.6H228.398L225.838 23.6C225.705 24.1867 225.638 24.6533 225.638 25C225.638 25.96 226.105 26.44 227.038 26.44C227.518 26.44 227.865 26.4 228.078 26.32C227.545 27.8667 226.918 28.9067 226.198 29.44C225.478 29.9733 224.691 30.24 223.838 30.24Z" fill="#F7B21E"/>
</svg>
